<?xml version="1.0" encoding="utf-8"?>
<!-- Generator: Adobe Illustrator 18.0.0, SVG Export Plug-In . SVG Version: 6.00 Build 0)  -->
<!DOCTYPE svg PUBLIC "-//W3C//DTD SVG 1.1//EN" "http://www.w3.org/Graphics/SVG/1.1/DTD/svg11.dtd">
<svg version="1.1" id="Layer_1" xmlns="http://www.w3.org/2000/svg" xmlns:xlink="http://www.w3.org/1999/xlink" x="0px" y="0px"
	 viewBox="0 0 1024 1024" enable-background="new 0 0 1024 1024" xml:space="preserve">
<path fill="#FFFFFF" d="M795.4,500.8c1.1,69.6,57.1,125.8,126.6,127v85.9c-116.6,0-211.1-94.9-211.4-212.8V410h84.8V500.8z
	 M313.3,713.6h-84.5C228,643.8,171.7,587.3,102,586.1v-85.9c69.6,0,131.3,33.8,169.8,86.2c38.8-51.1,100.5-84.1,170.2-84.2
	c118.4,0.2,213.3,94.7,213.3,211.3h-83.1c-0.9-70.5-58.3-127.5-129-127.5c-70.8,0-128.2,56.9-129.1,127.5H313.3z"/>
</svg>
